<svg xmlns="http://www.w3.org/2000/svg" viewBox="0 0 512 512" width="512" height="512">
  <defs>
    <linearGradient id="g" x1="0" y1="0" x2="1" y2="1">
      <stop offset="0" stop-color="#667eea"/>
      <stop offset="1" stop-color="#764ba2"/>
    </linearGradient>
  </defs>
  <rect width="512" height="512" rx="112" fill="url(#g)"/>
  <g fill="#ffffff">
    <path d="M256 120c14 0 26 12 26 26v18h-52v-18c0-14 12-26 26-26z"/>
    <path d="M150 210h212a16 16 0 0 1 16 16v134a32 32 0 0 1-32 32H166a32 32 0 0 1-32-32V226a16 16 0 0 1 16-16zm24 52a14 14 0 1 0 0 28 14 14 0 0 0 0-28zm82 0a14 14 0 1 0 0 28 14 14 0 0 0 0-28zm82 0a14 14 0 1 0 0 28 14 14 0 0 0 0-28zM174 322a14 14 0 1 0 0 28 14 14 0 0 0 0-28zm82 0a14 14 0 1 0 0 28 14 14 0 0 0 0-28zm82 0a14 14 0 1 0 0 28 14 14 0 0 0 0-28z"/>
  </g>
</svg>
